<svg width="135" height="30" viewBox="0 0 135 30" fill="none" xmlns="http://www.w3.org/2000/svg">
<circle cx="15" cy="15" r="14" fill="white" stroke="#CCCCCC" stroke-width="2"/>
<path d="M18.0059 15.75L18.3391 13.5783H16.2553V12.169C16.2553 11.5748 16.5464 10.9957 17.4797 10.9957H18.427V9.14672C18.427 9.14672 17.5673 9 16.7454 9C15.0293 9 13.9076 10.0402 13.9076 11.9231V13.5783H12V15.75H13.9076V21H16.2553V15.75H18.0059Z" fill="#CCCCCC"/>
<circle cx="50" cy="15" r="14" fill="white" stroke="#CCCCCC" stroke-width="2"/>
<path d="M56.2563 11.9906C56.2656 12.1219 56.2656 12.2531 56.2656 12.3844C56.2656 16.3875 53.2188 21 47.65 21C45.9344 21 44.3406 20.5031 43 19.6406C43.2438 19.6687 43.4781 19.6781 43.7312 19.6781C45.1469 19.6781 46.45 19.2 47.4906 18.3844C46.1594 18.3563 45.0437 17.4844 44.6594 16.2844C44.8469 16.3125 45.0344 16.3312 45.2313 16.3312C45.5031 16.3312 45.775 16.2937 46.0281 16.2281C44.6406 15.9469 43.6 14.7281 43.6 13.2562V13.2188C44.0031 13.4438 44.4719 13.5844 44.9687 13.6031C44.1531 13.0594 43.6187 12.1312 43.6187 11.0812C43.6187 10.5187 43.7687 10.0031 44.0312 9.55311C45.5219 11.3906 47.7625 12.5906 50.275 12.7219C50.2281 12.4969 50.2 12.2625 50.2 12.0281C50.2 10.3594 51.55 9 53.2281 9C54.1 9 54.8875 9.36562 55.4406 9.95625C56.125 9.82501 56.7812 9.57187 57.3625 9.225C57.1374 9.92814 56.6593 10.5188 56.0312 10.8937C56.6406 10.8281 57.2312 10.6594 57.775 10.425C57.3625 11.025 56.8469 11.5593 56.2563 11.9906Z" fill="#CCCCCC"/>
<circle cx="85" cy="15" r="14" fill="white" stroke="#CCCCCC" stroke-width="2"/>
<path d="M86.6644 14.1405C86.7217 14.4434 86.7626 14.7462 86.7626 15.1391C86.7626 18.5689 84.4625 21 81 21C77.6849 21 75 18.3152 75 15C75 11.6848 77.6849 9 81 9C82.6207 9 83.9713 9.58934 85.0191 10.5716L83.3902 12.1351C82.9481 11.7094 82.1705 11.2101 81 11.2101C78.9536 11.2101 77.2837 12.9045 77.2837 15C77.2837 17.0955 78.9536 18.7899 81 18.7899C83.3738 18.7899 84.266 17.0791 84.4052 16.2032H81V14.1405H86.6644V14.1405ZM92.4583 14.3417V12.6H90.7083V14.3417H88.9667V16.0917H90.7083V17.8333H92.4583V16.0917H94.2V14.3417H92.4583Z" fill="#CCCCCC"/>
<circle cx="120" cy="15" r="14" fill="white" stroke="#CCCCCC" stroke-width="2"/>
<path d="M116.686 21H114.198V12.9882H116.686V21ZM115.441 11.8953C114.645 11.8953 114 11.2364 114 10.4408C114 10.0587 114.152 9.69222 114.422 9.42201C114.692 9.1518 115.059 9 115.441 9C115.823 9 116.189 9.1518 116.46 9.42201C116.73 9.69222 116.882 10.0587 116.882 10.4408C116.882 11.2364 116.236 11.8953 115.441 11.8953ZM125.998 21H123.515V17.0999C123.515 16.1704 123.496 14.9784 122.222 14.9784C120.928 14.9784 120.73 15.9883 120.73 17.0329V21H118.245V12.9882H120.631V14.0811H120.666C120.998 13.4516 121.809 12.7873 123.019 12.7873C125.537 12.7873 126 14.4454 126 16.599V21H125.998Z" fill="#CCCCCC"/>
</svg>
